<svg xmlns="http://www.w3.org/2000/svg" viewBox="0 0 512 512">
  <rect width="512" height="512" fill="#006D77"/>
  <rect x="86" y="86" width="340" height="340" rx="80"
        fill="rgba(174,246,199,0.18)"
        stroke="rgba(174,246,199,0.3)"
        stroke-width="14"/>
  <g transform="translate(256,256) scale(0.286) translate(-480,470)">
    <path fill="#AEF6C7" d="M281.5-201.5Q200-283 200-400q0-100 61.5-176.5T420-674q-26-5-50-14.5T327-717q-28-29-37.5-67t-9.5-78v-18q86-2 148 56.5T489-680q14-43 39.5-80t57.5-69q9-9 21-9t21 9q9 9 9 21t-9 21q-25 25-45 54t-34 61q94 24 152.5 99.5T760-400q0 117-81.5 198.5T480-120q-117 0-198.5-81.5ZM636-244q64-64 64-156t-64-156q-64-64-156-64t-156 64q-64 64-64 156t64 156q64 64 156 64t156-64ZM480-400Z"/>
  </g>
</svg>
